<?xml version="1.0" encoding="UTF-8" standalone="no"?>
<!-- Created with Inkscape (http://www.inkscape.org/) -->

<svg
   version="1.1"
   id="svg2"
   width="566.92798"
   height="389.78601"
   viewBox="0 0 566.92796 389.78601"
   xmlns="http://www.w3.org/2000/svg"
   xmlns:svg="http://www.w3.org/2000/svg">
  <defs
     id="defs6">
    <clipPath
       clipPathUnits="userSpaceOnUse"
       id="clipPath18">
      <path
         d="M 0,510.236 H 907.087 V 0 H 0 Z"
         id="path16" />
    </clipPath>
    <linearGradient
       x1="0"
       y1="0"
       x2="1"
       y2="0"
       gradientUnits="userSpaceOnUse"
       gradientTransform="matrix(262.07193,0,0,-262.07193,240.94489,310.23923)"
       spreadMethod="pad"
       id="linearGradient60">
      <stop
         style="stop-opacity:1;stop-color:#80cc28"
         offset="0"
         id="stop48" />
      <stop
         style="stop-opacity:1;stop-color:#80cc28"
         offset="0.25"
         id="stop50" />
      <stop
         style="stop-opacity:1;stop-color:#00adef"
         offset="0.72749066"
         id="stop52" />
      <stop
         style="stop-opacity:1;stop-color:#00adef"
         offset="0.849628"
         id="stop54" />
      <stop
         style="stop-opacity:1;stop-color:#00adef"
         offset="0.86198833"
         id="stop56" />
      <stop
         style="stop-opacity:1;stop-color:#00adef"
         offset="1"
         id="stop58" />
    </linearGradient>
    <linearGradient
       x1="0"
       y1="0"
       x2="1"
       y2="0"
       gradientUnits="userSpaceOnUse"
       gradientTransform="matrix(6.8711972,0,0,-6.8711972,274.96039,284.73206)"
       spreadMethod="pad"
       id="linearGradient88">
      <stop
         style="stop-opacity:1;stop-color:#80cc28"
         offset="0"
         id="stop76" />
      <stop
         style="stop-opacity:1;stop-color:#80cc28"
         offset="0.248801"
         id="stop78" />
      <stop
         style="stop-opacity:1;stop-color:#00adef"
         offset="0.72001434"
         id="stop80" />
      <stop
         style="stop-opacity:1;stop-color:#00adef"
         offset="0.840546"
         id="stop82" />
      <stop
         style="stop-opacity:1;stop-color:#00adef"
         offset="0.85365285"
         id="stop84" />
      <stop
         style="stop-opacity:1;stop-color:#00adef"
         offset="1"
         id="stop86" />
    </linearGradient>
    <clipPath
       clipPathUnits="userSpaceOnUse"
       id="clipPath98">
      <path
         d="M 0,510.236 H 907.087 V 0 H 0 Z"
         id="path96" />
    </clipPath>
    <clipPath
       clipPathUnits="userSpaceOnUse"
       id="clipPath106">
      <path
         d="m 270.812,280.491 h 82.92 v -55.415 h -82.92 z"
         id="path104" />
    </clipPath>
    <clipPath
       clipPathUnits="userSpaceOnUse"
       id="clipPath110">
      <path
         d="m 339.085,280.491 c -30.278,-23.276 -56.641,-40.938 -67.042,-30.13 v 0 c -0.704,0.704 -1.015,1.939 -1.107,3.394 0,0.004 0,0.008 0,0.012 -0.014,0.21 -0.023,0.423 -0.027,0.642 -0.002,0.09 -0.003,0.182 -0.004,0.273 0,0.136 -10e-4,0.271 0.001,0.409 0.003,0.232 0.01,0.467 0.021,0.704 v 0 0.001 c 0.003,0.065 0.006,0.131 0.009,0.197 -0.909,-14.119 2.654,-32.881 28.673,-30.751 1.886,0.512 3.751,1.277 5.552,2.329 0.179,0.107 0.363,0.205 0.541,0.314 13.635,8.319 30.795,21.232 48.03,34.952 z"
         id="path108" />
    </clipPath>
    <linearGradient
       x1="0"
       y1="0"
       x2="1"
       y2="0"
       gradientUnits="userSpaceOnUse"
       gradientTransform="matrix(82.919746,0,0,-82.919746,270.81235,252.7834)"
       spreadMethod="pad"
       id="linearGradient128">
      <stop
         style="stop-opacity:1;stop-color:#ffffff"
         offset="0"
         id="stop116" />
      <stop
         style="stop-opacity:1;stop-color:#ffffff"
         offset="0.0232514"
         id="stop118" />
      <stop
         style="stop-opacity:0;stop-color:#ffffff"
         offset="0.70207512"
         id="stop120" />
      <stop
         style="stop-opacity:0;stop-color:#ffffff"
         offset="0.705605"
         id="stop122" />
      <stop
         style="stop-opacity:0;stop-color:#ffffff"
         offset="0.94003512"
         id="stop124" />
      <stop
         style="stop-opacity:0;stop-color:#ffffff"
         offset="1"
         id="stop126" />
    </linearGradient>
    <mask
       maskUnits="userSpaceOnUse"
       x="0"
       y="0"
       width="1"
       height="1"
       id="mask130">
      <g
         id="g140">
        <g
           id="g138">
          <g
             id="g136">
            <g
               id="g134">
              <path
                 d="M -32768,32767 H 32767 V -32768 H -32768 Z"
                 style="fill:url(#linearGradient128);stroke:none"
                 id="path132" />
            </g>
          </g>
        </g>
      </g>
    </mask>
    <linearGradient
       x1="0"
       y1="0"
       x2="1"
       y2="0"
       gradientUnits="userSpaceOnUse"
       gradientTransform="matrix(82.919746,0,0,-82.919746,270.81235,252.7834)"
       spreadMethod="pad"
       id="linearGradient154">
      <stop
         style="stop-opacity:1;stop-color:#54a126"
         offset="0"
         id="stop142" />
      <stop
         style="stop-opacity:1;stop-color:#54a126"
         offset="0.0232514"
         id="stop144" />
      <stop
         style="stop-opacity:1;stop-color:#80cc28"
         offset="0.70207512"
         id="stop146" />
      <stop
         style="stop-opacity:1;stop-color:#80cc28"
         offset="0.705605"
         id="stop148" />
      <stop
         style="stop-opacity:1;stop-color:#80cc28"
         offset="0.94003512"
         id="stop150" />
      <stop
         style="stop-opacity:1;stop-color:#80cc28"
         offset="1"
         id="stop152" />
    </linearGradient>
    <clipPath
       clipPathUnits="userSpaceOnUse"
       id="clipPath180">
      <path
         d="m 350.951,290.72 14.177,-18.713 c 16.345,13.281 32.059,26.54 44.133,36.482 v 0 c -5.09,5.253 -10.439,11.329 -14.607,16.203 v 0 C 380.379,314.34 365.41,302.245 350.951,290.72"
         id="path178" />
    </clipPath>
    <linearGradient
       x1="0"
       y1="0"
       x2="1"
       y2="0"
       gradientUnits="userSpaceOnUse"
       gradientTransform="matrix(49.37537,37.904308,37.904308,-49.37537,359.55182,282.86392)"
       spreadMethod="pad"
       id="linearGradient198">
      <stop
         style="stop-opacity:0;stop-color:#ffffff"
         offset="0"
         id="stop190" />
      <stop
         style="stop-opacity:0;stop-color:#ffffff"
         offset="0.131924"
         id="stop192" />
      <stop
         style="stop-opacity:1;stop-color:#ffffff"
         offset="0.82318289"
         id="stop194" />
      <stop
         style="stop-opacity:1;stop-color:#ffffff"
         offset="1"
         id="stop196" />
    </linearGradient>
    <mask
       maskUnits="userSpaceOnUse"
       x="0"
       y="0"
       width="1"
       height="1"
       id="mask200">
      <g
         id="g210">
        <g
           id="g208">
          <g
             id="g206">
            <g
               id="g204">
              <path
                 d="M -32768,32767 H 32767 V -32768 H -32768 Z"
                 style="fill:url(#linearGradient198);stroke:none"
                 id="path202" />
            </g>
          </g>
        </g>
      </g>
    </mask>
    <linearGradient
       x1="0"
       y1="0"
       x2="1"
       y2="0"
       gradientUnits="userSpaceOnUse"
       gradientTransform="matrix(49.37537,37.904308,37.904308,-49.37537,359.55182,282.86392)"
       spreadMethod="pad"
       id="linearGradient224">
      <stop
         style="stop-opacity:1;stop-color:#00adef"
         offset="0"
         id="stop216" />
      <stop
         style="stop-opacity:1;stop-color:#00adef"
         offset="0.131924"
         id="stop218" />
      <stop
         style="stop-opacity:1;stop-color:#25378c"
         offset="0.82318289"
         id="stop220" />
      <stop
         style="stop-opacity:1;stop-color:#25378c"
         offset="1"
         id="stop222" />
    </linearGradient>
    <clipPath
       clipPathUnits="userSpaceOnUse"
       id="clipPath234">
      <path
         d="m 441.247,350.442 c -7.703,-1.924 -16.504,-6.173 -25.962,-11.893 v 0 c 3.613,-4.346 9.052,-10.881 12.765,-15.311 v 0 c 12.584,8.803 25.881,14.942 37.82,15.563 v 0 l -5.056,12.819 c -2.173,0.286 -4.384,0.43 -6.615,0.43 v 0 c -4.283,0 -8.639,-0.53 -12.952,-1.608"
         id="path232" />
    </clipPath>
    <linearGradient
       x1="0"
       y1="0"
       x2="1"
       y2="0"
       gradientUnits="userSpaceOnUse"
       gradientTransform="matrix(-44.936981,-15.555109,-15.555109,44.936981,457.03616,344.69843)"
       spreadMethod="pad"
       id="linearGradient252">
      <stop
         style="stop-opacity:0;stop-color:#ffffff"
         offset="0"
         id="stop244" />
      <stop
         style="stop-opacity:0;stop-color:#ffffff"
         offset="0.131924"
         id="stop246" />
      <stop
         style="stop-opacity:1;stop-color:#ffffff"
         offset="0.82318289"
         id="stop248" />
      <stop
         style="stop-opacity:1;stop-color:#ffffff"
         offset="1"
         id="stop250" />
    </linearGradient>
    <mask
       maskUnits="userSpaceOnUse"
       x="0"
       y="0"
       width="1"
       height="1"
       id="mask254">
      <g
         id="g264">
        <g
           id="g262">
          <g
             id="g260">
            <g
               id="g258">
              <path
                 d="M -32768,32767 H 32767 V -32768 H -32768 Z"
                 style="fill:url(#linearGradient252);stroke:none"
                 id="path256" />
            </g>
          </g>
        </g>
      </g>
    </mask>
    <linearGradient
       x1="0"
       y1="0"
       x2="1"
       y2="0"
       gradientUnits="userSpaceOnUse"
       gradientTransform="matrix(-44.936981,-15.555109,-15.555109,44.936981,457.03616,344.69843)"
       spreadMethod="pad"
       id="linearGradient278">
      <stop
         style="stop-opacity:1;stop-color:#00adef"
         offset="0"
         id="stop270" />
      <stop
         style="stop-opacity:1;stop-color:#00adef"
         offset="0.131924"
         id="stop272" />
      <stop
         style="stop-opacity:1;stop-color:#25378c"
         offset="0.82318289"
         id="stop274" />
      <stop
         style="stop-opacity:1;stop-color:#25378c"
         offset="1"
         id="stop276" />
    </linearGradient>
    <clipPath
       clipPathUnits="userSpaceOnUse"
       id="clipPath288">
      <path
         d="m 431.818,318.78 c 0.002,-0.002 0.006,-0.002 0.007,-0.004 v 0 c -0.156,0.18 -0.312,0.36 -0.468,0.54 v 0 c 0.181,-0.212 0.343,-0.401 0.461,-0.536"
         id="path286" />
    </clipPath>
    <linearGradient
       x1="0"
       y1="0"
       x2="1"
       y2="0"
       gradientUnits="userSpaceOnUse"
       gradientTransform="matrix(-44.936981,-15.555109,-15.555109,44.936981,462.24295,329.65659)"
       spreadMethod="pad"
       id="linearGradient306">
      <stop
         style="stop-opacity:0;stop-color:#ffffff"
         offset="0"
         id="stop298" />
      <stop
         style="stop-opacity:0;stop-color:#ffffff"
         offset="0.131924"
         id="stop300" />
      <stop
         style="stop-opacity:1;stop-color:#ffffff"
         offset="0.82318289"
         id="stop302" />
      <stop
         style="stop-opacity:1;stop-color:#ffffff"
         offset="1"
         id="stop304" />
    </linearGradient>
    <mask
       maskUnits="userSpaceOnUse"
       x="0"
       y="0"
       width="1"
       height="1"
       id="mask308">
      <g
         id="g318">
        <g
           id="g316">
          <g
             id="g314">
            <g
               id="g312">
              <path
                 d="M -32768,32767 H 32767 V -32768 H -32768 Z"
                 style="fill:url(#linearGradient306);stroke:none"
                 id="path310" />
            </g>
          </g>
        </g>
      </g>
    </mask>
    <linearGradient
       x1="0"
       y1="0"
       x2="1"
       y2="0"
       gradientUnits="userSpaceOnUse"
       gradientTransform="matrix(-44.936981,-15.555109,-15.555109,44.936981,462.24295,329.65659)"
       spreadMethod="pad"
       id="linearGradient332">
      <stop
         style="stop-opacity:1;stop-color:#3871c1"
         offset="0"
         id="stop324" />
      <stop
         style="stop-opacity:1;stop-color:#3871c1"
         offset="0.131924"
         id="stop326" />
      <stop
         style="stop-opacity:1;stop-color:#29528d"
         offset="0.82318289"
         id="stop328" />
      <stop
         style="stop-opacity:1;stop-color:#29528d"
         offset="1"
         id="stop330" />
    </linearGradient>
    <clipPath
       clipPathUnits="userSpaceOnUse"
       id="clipPath342">
      <path
         d="m 411.531,343.068 c 0,0 0,0 -0.001,0 v 0 c 0,0 0.001,0 0.001,0 m 10e-4,-10e-4 c -10e-4,0 -10e-4,10e-4 -10e-4,10e-4 v 0 c 0,0 0,-10e-4 10e-4,-10e-4 m 0,-0.001 c 0,0 0,0.001 0,0.001 v 0 c 0,0 0,-0.001 0,-0.001 m 0.003,-0.004 c -0.001,0.002 -0.002,0.003 -0.003,0.004 v 0 c 0.001,-10e-4 0.002,-0.002 0.003,-0.004 m 0.003,-0.003 c -0.001,10e-4 -0.002,0.002 -0.003,0.003 v 0 c 10e-4,-0.001 0.002,-0.002 0.003,-0.003 m 0.021,-0.026 c -0.006,0.008 -0.015,0.019 -0.021,0.026 v 0 c 0.007,-0.008 0.014,-0.017 0.021,-0.026"
         id="path340" />
    </clipPath>
    <linearGradient
       x1="0"
       y1="0"
       x2="1"
       y2="0"
       gradientUnits="userSpaceOnUse"
       gradientTransform="matrix(-44.936981,-15.555109,-15.555109,44.936981,452.6778,357.28922)"
       spreadMethod="pad"
       id="linearGradient360">
      <stop
         style="stop-opacity:0;stop-color:#ffffff"
         offset="0"
         id="stop352" />
      <stop
         style="stop-opacity:0;stop-color:#ffffff"
         offset="0.131924"
         id="stop354" />
      <stop
         style="stop-opacity:1;stop-color:#ffffff"
         offset="0.82318289"
         id="stop356" />
      <stop
         style="stop-opacity:1;stop-color:#ffffff"
         offset="1"
         id="stop358" />
    </linearGradient>
    <mask
       maskUnits="userSpaceOnUse"
       x="0"
       y="0"
       width="1"
       height="1"
       id="mask362">
      <g
         id="g372">
        <g
           id="g370">
          <g
             id="g368">
            <g
               id="g366">
              <path
                 d="M -32768,32767 H 32767 V -32768 H -32768 Z"
                 style="fill:url(#linearGradient360);stroke:none"
                 id="path364" />
            </g>
          </g>
        </g>
      </g>
    </mask>
    <linearGradient
       x1="0"
       y1="0"
       x2="1"
       y2="0"
       gradientUnits="userSpaceOnUse"
       gradientTransform="matrix(-44.936981,-15.555109,-15.555109,44.936981,452.6778,357.28922)"
       spreadMethod="pad"
       id="linearGradient386">
      <stop
         style="stop-opacity:1;stop-color:#3871c1"
         offset="0"
         id="stop378" />
      <stop
         style="stop-opacity:1;stop-color:#3871c1"
         offset="0.131924"
         id="stop380" />
      <stop
         style="stop-opacity:1;stop-color:#29528d"
         offset="0.82318289"
         id="stop382" />
      <stop
         style="stop-opacity:1;stop-color:#29528d"
         offset="1"
         id="stop384" />
    </linearGradient>
    <clipPath
       clipPathUnits="userSpaceOnUse"
       id="clipPath396">
      <path
         d="M 0,510.236 H 907.087 V 0 H 0 Z"
         id="path394" />
    </clipPath>
  </defs>
  <g
     id="g10"
     transform="matrix(1.3333333,0,0,-1.3333333,0,680.31467)">
    <g
       id="g12"
       transform="translate(-240.94523,108.94802)">
      <g
         id="g14"
         clip-path="url(#clipPath18)">
        <g
           id="g20"
           transform="translate(397.2076,214.5218)">
          <path
             d="m 0,0 v -40.385 c -1.993,-1.605 -4.568,-2.971 -7.664,-4.067 -3.241,-1.152 -6.713,-1.737 -10.314,-1.737 -2.77,0 -5.35,0.473 -7.67,1.405 -2.302,0.919 -4.312,2.369 -5.979,4.311 -1.676,1.958 -2.997,4.491 -3.925,7.531 -0.942,3.054 -1.42,6.749 -1.42,10.983 0,3.976 0.565,7.515 1.679,10.519 1.107,2.995 2.684,5.539 4.689,7.562 1.999,2.023 4.436,3.581 7.248,4.631 2.831,1.052 5.979,1.585 9.364,1.585 1.67,0 3.298,-0.093 4.841,-0.278 C -7.579,1.867 -6.154,1.631 -4.914,1.358 -3.621,1.078 -2.51,0.797 -1.608,0.522 -0.945,0.321 -0.413,0.148 0,0 m 11.195,12.035 c -2.292,0.806 -4.791,1.531 -7.436,2.157 -2.654,0.622 -5.446,1.128 -8.291,1.503 -2.896,0.379 -5.904,0.571 -8.945,0.571 -5.955,0 -11.51,-0.824 -16.509,-2.451 -5.029,-1.63 -9.423,-4.092 -13.058,-7.317 -3.646,-3.237 -6.525,-7.315 -8.563,-12.125 -2.036,-4.796 -3.068,-10.434 -3.068,-16.76 0,-6.257 0.788,-11.796 2.339,-16.463 1.566,-4.688 3.773,-8.644 6.562,-11.758 2.795,-3.122 6.188,-5.506 10.079,-7.081 3.882,-1.566 8.186,-2.36 12.788,-2.36 2.845,0 5.449,0.243 7.737,0.726 2.272,0.479 4.394,1.126 6.309,1.923 1.906,0.793 3.702,1.709 5.338,2.718 1.389,0.852 2.77,1.743 4.111,2.651 3.938,-4.287 9.575,-6.737 15.538,-6.737 h 1.886 V 9.418 l -0.438,0.189 c -1.907,0.793 -4.052,1.609 -6.379,2.428"
             style="fill:#25378c;fill-opacity:1;fill-rule:nonzero;stroke:none"
             id="path22" />
        </g>
        <g
           id="g24"
           transform="translate(486.3113,190.6451)">
          <path
             d="m 0,0 c -1.892,1.893 -4.403,3.636 -7.458,5.178 -3.023,1.526 -6.759,2.977 -11.108,4.314 -2.027,0.611 -4.105,1.185 -6.168,1.708 -2.035,0.515 -3.871,1.103 -5.46,1.749 -1.563,0.629 -2.833,1.384 -3.775,2.247 -0.858,0.778 -1.293,1.831 -1.293,3.135 0,2.729 1.262,4.75 3.753,6.008 2.654,1.341 6.412,2.022 11.169,2.022 2.747,0 5.595,-0.296 8.459,-0.877 2.874,-0.584 6.185,-1.544 9.843,-2.853 l 0.627,-0.216 5.246,11.824 -0.633,0.292 c -3.846,1.82 -7.95,3.225 -12.198,4.175 -4.251,0.954 -9.12,1.437 -14.47,1.437 -4.155,0 -8.069,-0.437 -11.631,-1.298 -3.584,-0.867 -6.727,-2.181 -9.342,-3.902 -2.634,-1.73 -4.737,-3.937 -6.246,-6.561 -1.516,-2.637 -2.283,-5.731 -2.283,-9.198 0,-3.427 0.675,-6.342 2.01,-8.667 1.316,-2.3 3.121,-4.288 5.361,-5.908 2.21,-1.597 4.836,-2.966 7.799,-4.07 2.87,-1.075 6.013,-2.155 9.331,-3.208 3.376,-1.133 6.173,-2.178 8.31,-3.102 2.117,-0.914 3.823,-1.822 5.071,-2.697 1.176,-0.829 1.982,-1.661 2.396,-2.474 0.416,-0.825 0.629,-1.734 0.629,-2.705 0,-1.085 -0.32,-2.155 -0.95,-3.18 -0.649,-1.05 -1.549,-2.011 -2.679,-2.86 -1.122,-0.845 -2.499,-1.537 -4.09,-2.059 -1.589,-0.519 -3.382,-0.781 -5.328,-0.781 -3.596,0 -7.377,0.413 -11.234,1.229 -3.866,0.812 -8.172,2.265 -12.8,4.321 l -0.666,0.296 -5.398,-12.427 0.596,-0.306 c 1.406,-0.712 3.149,-1.486 5.181,-2.302 2.039,-0.819 4.358,-1.557 6.894,-2.193 2.536,-0.643 5.375,-1.188 8.445,-1.618 3.087,-0.429 6.449,-0.646 9.997,-0.646 4.273,0 8.251,0.548 11.827,1.629 3.582,1.089 6.722,2.62 9.331,4.553 2.629,1.948 4.709,4.309 6.185,7.017 1.484,2.723 2.238,5.717 2.238,8.901 0,2.812 -0.436,5.407 -1.299,7.712 C 3.326,-4.055 1.917,-1.916 0,0"
             style="fill:#25378c;fill-opacity:1;fill-rule:nonzero;stroke:none"
             id="path26" />
        </g>
        <g
           id="g28"
           transform="translate(557.554,214.3488)">
          <path
             d="m 0,0 v -40.746 c -2.603,-1.777 -5.468,-3.105 -8.513,-3.947 -6.463,-1.78 -12.322,-1.753 -16.941,0.084 -2.327,0.917 -4.349,2.367 -6.013,4.31 -1.681,1.958 -3.003,4.478 -3.928,7.491 -0.941,3.049 -1.419,6.757 -1.419,11.022 0,4.057 0.579,7.666 1.718,10.731 1.132,3.037 2.735,5.591 4.759,7.594 2.033,2.002 4.459,3.524 7.211,4.522 2.78,1.011 5.853,1.522 9.14,1.522 1.36,0 2.769,-0.072 4.191,-0.211 1.381,-0.135 2.725,-0.334 3.992,-0.59 1.288,-0.265 2.427,-0.561 3.481,-0.904 V 0.877 C -1.431,0.587 -0.652,0.293 0,0 M -0.391,29.299 V 13.924 c -0.655,0.201 -1.332,0.413 -2.038,0.637 -1.074,0.336 -2.305,0.653 -3.666,0.941 -1.38,0.287 -2.971,0.519 -4.734,0.688 -1.777,0.166 -3.866,0.249 -6.208,0.249 -2.845,0 -5.777,-0.326 -8.72,-0.971 -2.938,-0.652 -5.823,-1.677 -8.575,-3.045 -2.758,-1.374 -5.384,-3.116 -7.81,-5.177 -2.448,-2.078 -4.613,-4.57 -6.432,-7.406 -1.825,-2.827 -3.289,-6.104 -4.352,-9.741 -1.057,-3.625 -1.591,-7.696 -1.591,-12.099 0,-6.588 0.815,-12.319 2.423,-17.034 1.614,-4.738 3.874,-8.708 6.719,-11.799 2.854,-3.101 6.264,-5.409 10.132,-6.861 3.855,-1.448 8.058,-2.182 12.497,-2.182 2.53,0 4.956,0.219 7.216,0.653 2.255,0.432 4.389,1.042 6.345,1.812 1.949,0.764 3.824,1.677 5.581,2.716 1.524,0.904 2.988,1.853 4.36,2.823 3.931,-4.278 9.556,-6.723 15.505,-6.723 h 1.757 V 46.54 h -0.503 c -9.874,0 -17.906,-7.735 -17.906,-17.241"
             style="fill:#25378c;fill-opacity:1;fill-rule:nonzero;stroke:none"
             id="path30" />
        </g>
        <g
           id="g32"
           transform="translate(611.6246,170.8555)">
          <path
             d="m 0,0 v 40.745 c 2.603,1.778 5.468,3.106 8.513,3.948 6.463,1.779 12.319,1.751 16.941,-0.084 2.325,-0.917 4.349,-2.367 6.013,-4.31 1.681,-1.958 3.003,-4.478 3.928,-7.491 0.941,-3.049 1.419,-6.757 1.419,-11.022 0,-4.057 -0.579,-7.666 -1.717,-10.731 C 33.964,8.018 32.361,5.464 30.337,3.461 28.304,1.459 25.878,-0.063 23.126,-1.061 19.204,-2.488 14.712,-2.86 9.795,-2.372 8.414,-2.237 7.07,-2.038 5.803,-1.782 4.515,-1.517 3.376,-1.221 2.322,-0.878 v 0.001 C 1.431,-0.587 0.652,-0.293 0,0 m 52.094,39.034 c -1.614,4.738 -3.874,8.708 -6.719,11.799 -2.851,3.098 -6.261,5.406 -10.132,6.861 -3.855,1.448 -8.058,2.182 -12.497,2.182 -2.53,0 -4.956,-0.219 -7.216,-0.653 C 13.275,58.791 11.141,58.181 9.185,57.411 7.228,56.641 5.35,55.729 3.607,54.695 2.1,53.803 0.633,52.854 -0.756,51.871 c -3.93,4.279 -9.553,6.724 -15.502,6.724 h -1.757 V -46.54 h 0.503 c 9.871,0 17.903,7.735 17.903,17.241 v 15.375 c 0.655,-0.201 1.335,-0.413 2.038,-0.637 1.066,-0.334 2.297,-0.651 3.669,-0.943 1.383,-0.286 2.974,-0.517 4.731,-0.686 1.777,-0.166 3.866,-0.249 6.208,-0.249 2.842,0 5.777,0.326 8.723,0.971 2.941,0.654 5.825,1.679 8.572,3.045 2.749,1.368 5.378,3.111 7.813,5.177 2.445,2.078 4.61,4.569 6.435,7.406 1.821,2.83 3.283,6.108 4.346,9.741 1.057,3.623 1.591,7.694 1.591,12.099 0,6.595 -0.815,12.327 -2.423,17.034"
             style="fill:#25378c;fill-opacity:1;fill-rule:nonzero;stroke:none"
             id="path34" />
        </g>
      </g>
    </g>
    <g
       id="g36"
       transform="translate(-240.94523,108.94802)">
      <g
         id="g38">
        <g
           id="g44">
          <g
             id="g46">
            <path
               d="m 256.514,311.774 c -9.031,-18.919 -16.909,-38.983 -15.377,-60.811 v 0 c 4.446,-35.749 40.069,-38.026 64.565,-23.078 v 0 c 29.7,18.122 76.128,58.019 103.615,80.651 v 0 c 43.078,-45.143 73.348,-54.343 86.094,-43.667 v 0 c 7.215,6.044 8.429,18.455 7.174,30.268 v 0 c 0.001,0.025 -10e-4,0.042 -10e-4,0.042 v 0 c 0,0 -0.266,5.808 -2.719,14.339 v 0 c -0.029,0.11 -0.056,0.229 -0.087,0.338 v 0 c -0.039,0.125 -0.081,0.24 -0.12,0.364 v 0 c -1.228,4.139 -2.971,8.872 -5.433,13.888 v 0 c -0.076,0.157 -0.155,0.307 -0.23,0.463 v 0 c -0.253,0.507 -0.491,1.008 -0.758,1.521 v 0 c -0.003,-0.009 -0.005,-0.015 -0.007,-0.024 v 0 c -14.265,27.619 -35.548,29.152 -51.984,24.374 v 0 c -7.635,-2.22 -16.532,-6.187 -26.008,-11.921 v 0 c -14.103,17.233 -27.969,35.063 -39.843,49.431 v 0 c -7.764,9.395 -16.565,13.336 -25.807,13.336 v 0 c -35.847,0.004 -78.361,-59.28 -93.074,-89.514 m 15.529,-61.413 c -1.84,1.913 -1.045,7.475 -0.435,11.148 v 0 c 1.73,12.189 6.779,25.186 12.37,36.585 v 0 c 11.523,22.886 24.728,44.456 45.372,59.049 v 0 c 19.637,13.88 25.494,15.829 57.777,-23.445 v 0 c 2.555,-3.107 5.074,-6.101 7.557,-8.984 v 0 C 352.01,293.775 303.088,247.163 280.286,247.158 v 0 c -3.345,-10e-4 -6.124,1.001 -8.243,3.203 m 155.987,72.821 c 17.763,12.181 38.283,18.95 53.721,10.642 v 0 c 1.284,-0.847 8.47,-5.832 13.011,-13.737 v 0 c 2.388,-5.018 6.125,-14.239 6.174,-22.908 v 0 c -10e-4,-0.105 -0.003,-0.211 -0.005,-0.317 v 0 c -10e-4,-0.295 -0.004,-0.591 -0.013,-0.885 v 0 c -0.199,-7.35 -1.914,-15.623 -7.959,-19.427 v 0 c -0.002,0.008 -0.004,0.016 -0.006,0.024 v 0 c -1.842,-1.347 -3.957,-1.979 -6.306,-1.979 v 0 c -13.836,0 -35.842,21.904 -58.617,48.587 m 71.685,-13.155 c 0.02,-0.059 0.043,-0.112 0.063,-0.171 v 0 c 0,0 0.01,-0.052 0.025,-0.126 v 0 c -0.028,0.098 -0.059,0.198 -0.088,0.297"
               style="fill:url(#linearGradient60);stroke:none"
               id="path62" />
          </g>
        </g>
      </g>
    </g>
    <g
       id="g64"
       transform="translate(-240.94523,108.94802)">
      <g
         id="g66">
        <g
           id="g72">
          <g
             id="g74">
            <path
               d="m 281.831,293.567 c 0,0 -3.709,-7.19 -6.87,-17.67 v 0 c 1.874,6.009 4.263,11.989 6.87,17.67 z"
               style="fill:url(#linearGradient88);stroke:none"
               id="path90" />
          </g>
        </g>
      </g>
    </g>
    <g
       id="g92"
       transform="translate(-240.94523,108.94802)">
      <g
         id="g94"
         clip-path="url(#clipPath98)">
        <g
           id="g100">
          <g
             id="g102" />
          <g
             id="g172">
            <g
               clip-path="url(#clipPath106)"
               id="g170">
              <g
                 id="g168">
                <g
                   clip-path="url(#clipPath110)"
                   id="g166">
                  <g
                     id="g164">
                    <g
                       id="g156" />
                    <g
                       mask="url(#mask130)"
                       id="g162">
                      <g
                         id="g160">
                        <path
                           d="m 339.085,280.491 c -30.278,-23.276 -56.641,-40.938 -67.042,-30.13 v 0 c -0.704,0.704 -1.015,1.939 -1.107,3.394 0,0.004 0,0.008 0,0.012 -0.014,0.21 -0.023,0.423 -0.027,0.642 -0.002,0.09 -0.003,0.182 -0.004,0.273 0,0.136 -10e-4,0.271 0.001,0.409 0.003,0.232 0.01,0.467 0.021,0.704 v 0 0.001 c 0.003,0.065 0.006,0.131 0.009,0.197 -0.909,-14.119 2.654,-32.881 28.673,-30.751 1.886,0.512 3.751,1.277 5.552,2.329 0.179,0.107 0.363,0.205 0.541,0.314 13.635,8.319 30.795,21.232 48.03,34.952 z"
                           style="fill:url(#linearGradient154);stroke:none"
                           id="path158" />
                      </g>
                    </g>
                  </g>
                </g>
              </g>
            </g>
          </g>
        </g>
      </g>
    </g>
    <g
       id="g174"
       transform="translate(-240.94523,108.94802)">
      <g
         id="g176"
         clip-path="url(#clipPath180)">
        <g
           id="g182">
          <g
             id="g184" />
          <g
             id="g212"
             mask="url(#mask200)">
            <g
               id="g214">
              <path
                 d="m 350.951,290.72 14.177,-18.713 c 16.345,13.281 32.059,26.54 44.133,36.482 v 0 c -5.09,5.253 -10.439,11.329 -14.607,16.203 v 0 C 380.379,314.34 365.41,302.245 350.951,290.72"
                 style="fill:url(#linearGradient224);stroke:none"
                 id="path226" />
            </g>
          </g>
        </g>
      </g>
    </g>
    <g
       id="g228"
       transform="translate(-240.94523,108.94802)">
      <g
         id="g230"
         clip-path="url(#clipPath234)">
        <g
           id="g236">
          <g
             id="g238" />
          <g
             id="g266"
             mask="url(#mask254)">
            <g
               id="g268">
              <path
                 d="m 441.247,350.442 c -7.703,-1.924 -16.504,-6.173 -25.962,-11.893 v 0 c 3.613,-4.346 9.052,-10.881 12.765,-15.311 v 0 c 12.584,8.803 25.881,14.942 37.82,15.563 v 0 l -5.056,12.819 c -2.173,0.286 -4.384,0.43 -6.615,0.43 v 0 c -4.283,0 -8.639,-0.53 -12.952,-1.608"
                 style="fill:url(#linearGradient278);stroke:none"
                 id="path280" />
            </g>
          </g>
        </g>
      </g>
    </g>
    <g
       id="g282"
       transform="translate(-240.94523,108.94802)">
      <g
         id="g284"
         clip-path="url(#clipPath288)">
        <g
           id="g290">
          <g
             id="g292" />
          <g
             id="g320"
             mask="url(#mask308)">
            <g
               id="g322">
              <path
                 d="m 431.818,318.78 c 0.002,-0.002 0.006,-0.002 0.007,-0.004 v 0 c -0.156,0.18 -0.312,0.36 -0.468,0.54 v 0 c 0.181,-0.212 0.343,-0.401 0.461,-0.536"
                 style="fill:url(#linearGradient332);stroke:none"
                 id="path334" />
            </g>
          </g>
        </g>
      </g>
    </g>
    <g
       id="g336"
       transform="translate(-240.94523,108.94802)">
      <g
         id="g338"
         clip-path="url(#clipPath342)">
        <g
           id="g344">
          <g
             id="g346" />
          <g
             id="g374"
             mask="url(#mask362)">
            <g
               id="g376">
              <path
                 d="m 411.531,343.068 c 0,0 0,0 -0.001,0 v 0 c 0,0 0.001,0 0.001,0 m 10e-4,-10e-4 c -10e-4,0 -10e-4,10e-4 -10e-4,10e-4 v 0 c 0,0 0,-10e-4 10e-4,-10e-4 m 0,-0.001 c 0,0 0,0.001 0,0.001 v 0 c 0,0 0,-0.001 0,-0.001 m 0.003,-0.004 c -0.001,0.002 -0.002,0.003 -0.003,0.004 v 0 c 0.001,-10e-4 0.002,-0.002 0.003,-0.004 m 0.003,-0.003 c -0.001,10e-4 -0.002,0.002 -0.003,0.003 v 0 c 10e-4,-0.001 0.002,-0.002 0.003,-0.003 m 0.021,-0.026 c -0.006,0.008 -0.015,0.019 -0.021,0.026 v 0 c 0.007,-0.008 0.014,-0.017 0.021,-0.026"
                 style="fill:url(#linearGradient386);stroke:none"
                 id="path388" />
            </g>
          </g>
        </g>
      </g>
    </g>
    <g
       id="g390"
       transform="translate(-240.94523,108.94802)">
      <g
         id="g392"
         clip-path="url(#clipPath396)">
        <path
           d="m 351.177,115.906 h -1.894 v 18.922 h 1.894 z"
           style="fill:#4f4c4d;fill-opacity:1;fill-rule:nonzero;stroke:none"
           id="path398" />
        <g
           id="g400"
           transform="translate(368.0948,129.3197)">
          <path
             d="m 0,0 c 1.118,-1.092 1.678,-2.675 1.678,-4.751 v -8.663 h -1.867 v 8.446 c 0,1.607 -0.402,2.833 -1.205,3.682 -0.803,0.848 -1.9,1.271 -3.289,1.271 -1.426,0 -2.562,-0.451 -3.411,-1.351 -0.848,-0.905 -1.272,-2.231 -1.272,-3.981 v -8.067 h -1.895 v 14.78 h 1.895 v -2.518 c 0.469,0.903 1.146,1.593 2.03,2.071 0.885,0.479 1.886,0.718 3.005,0.718 C -2.563,1.637 -1.118,1.092 0,0"
             style="fill:#4f4c4d;fill-opacity:1;fill-rule:nonzero;stroke:none"
             id="path402" />
        </g>
        <g
           id="g404"
           transform="translate(386.638,126.4356)">
          <path
             d="m 0,0 c -0.487,0.902 -1.15,1.598 -1.989,2.086 -0.84,0.487 -1.765,0.73 -2.776,0.73 -1.046,0 -1.984,-0.234 -2.814,-0.705 -0.831,-0.468 -1.485,-1.149 -1.963,-2.043 -0.479,-0.894 -0.717,-1.954 -0.717,-3.18 0,-1.209 0.238,-2.271 0.717,-3.182 0.478,-0.911 1.132,-1.605 1.963,-2.084 0.83,-0.479 1.768,-0.717 2.814,-0.717 1.011,0 1.936,0.245 2.776,0.73 0.839,0.488 1.502,1.184 1.989,2.086 0.487,0.902 0.731,1.948 0.731,3.14 C 0.731,-1.948 0.487,-0.902 0,0 m -11.261,0.881 c 0.613,1.145 1.457,2.029 2.531,2.652 1.074,0.624 2.287,0.935 3.641,0.935 1.299,0 2.472,-0.317 3.519,-0.948 C -0.524,2.888 0.244,2.067 0.731,1.056 V 9.501 H 2.625 V -10.53 H 0.731 v 3.304 c -0.451,-1.03 -1.191,-1.873 -2.22,-2.533 -1.028,-0.658 -2.238,-0.988 -3.627,-0.988 -1.353,0 -2.568,0.317 -3.641,0.948 -1.074,0.632 -1.913,1.526 -2.518,2.679 -0.604,1.156 -0.906,2.493 -0.906,4.008 0,1.516 0.306,2.846 0.92,3.993"
             style="fill:#4f4c4d;fill-opacity:1;fill-rule:nonzero;stroke:none"
             id="path406" />
        </g>
        <g
           id="g408"
           transform="translate(404.1255,118.0048)">
          <path
             d="m 0,0 c 0.829,0.441 1.502,1.109 2.017,2.003 0.514,0.892 0.771,1.99 0.771,3.288 0,1.299 -0.253,2.397 -0.758,3.289 -0.506,0.894 -1.173,1.562 -2.003,2.003 -0.83,0.442 -1.733,0.664 -2.707,0.664 -0.975,0 -1.877,-0.222 -2.707,-0.664 C -6.217,10.142 -6.88,9.474 -7.377,8.58 -7.873,7.688 -8.121,6.59 -8.121,5.291 -8.121,3.993 -7.873,2.895 -7.377,2.003 -6.88,1.109 -6.223,0.441 -5.401,0 c 0.822,-0.443 1.719,-0.664 2.694,-0.664 0.974,0 1.877,0.221 2.707,0.664 m -6.457,-1.381 c -1.11,0.623 -1.985,1.507 -2.625,2.652 -0.641,1.147 -0.961,2.486 -0.961,4.02 0,1.535 0.324,2.874 0.975,4.021 0.649,1.145 1.533,2.028 2.652,2.652 1.119,0.624 2.373,0.935 3.763,0.935 1.39,0 2.648,-0.311 3.776,-0.935 C 2.251,11.34 3.135,10.457 3.776,9.312 4.417,8.165 4.737,6.826 4.737,5.291 4.737,3.776 4.412,2.439 3.762,1.286 3.113,0.13 2.219,-0.758 1.082,-1.381 c -1.136,-0.622 -2.4,-0.935 -3.789,-0.935 -1.39,0 -2.64,0.313 -3.75,0.935"
             style="fill:#4f4c4d;fill-opacity:1;fill-rule:nonzero;stroke:none"
             id="path410" />
        </g>
        <g
           id="g412"
           transform="translate(424.9409,129.3197)">
          <path
             d="m 0,0 c 1.118,-1.092 1.678,-2.675 1.678,-4.751 v -8.663 h -1.867 v 8.446 c 0,1.607 -0.402,2.833 -1.205,3.682 -0.803,0.848 -1.9,1.271 -3.289,1.271 -1.426,0 -2.562,-0.451 -3.411,-1.351 -0.848,-0.905 -1.272,-2.231 -1.272,-3.981 v -8.067 h -1.895 v 14.78 h 1.895 v -2.518 c 0.469,0.903 1.146,1.593 2.03,2.071 0.885,0.479 1.886,0.718 3.005,0.718 C -2.563,1.637 -1.119,1.092 0,0"
             style="fill:#4f4c4d;fill-opacity:1;fill-rule:nonzero;stroke:none"
             id="path414" />
        </g>
        <g
           id="g416"
           transform="translate(442.9563,126.923)">
          <path
             d="M 0,0 C -0.46,0.777 -1.088,1.362 -1.882,1.76 -2.675,2.156 -3.542,2.356 -4.48,2.356 -5.887,2.356 -7.088,1.905 -8.081,1.003 -9.073,0.1 -9.623,-1.173 -9.731,-2.814 H 0.663 C 0.681,-1.713 0.461,-0.775 0,0 M 2.531,-4.357 H -9.731 c 0.054,-1.12 0.324,-2.075 0.812,-2.869 0.487,-0.796 1.128,-1.394 1.922,-1.801 0.794,-0.406 1.66,-0.609 2.599,-0.609 1.227,0 2.26,0.298 3.099,0.892 0.839,0.596 1.394,1.399 1.664,2.41 h 2.004 c -0.362,-1.443 -1.133,-2.62 -2.315,-3.531 -1.182,-0.914 -2.666,-1.369 -4.452,-1.369 -1.39,0 -2.636,0.313 -3.736,0.934 -1.101,0.624 -1.963,1.507 -2.586,2.652 -0.623,1.148 -0.933,2.486 -0.933,4.021 0,1.535 0.306,2.878 0.92,4.034 0.613,1.153 1.471,2.039 2.571,2.652 1.101,0.613 2.356,0.921 3.764,0.921 1.406,0 2.639,-0.308 3.695,-0.921 1.055,-0.613 1.867,-1.439 2.436,-2.476 0.568,-1.038 0.852,-2.19 0.852,-3.452 0,-0.649 -0.018,-1.145 -0.054,-1.488"
             style="fill:#4f4c4d;fill-opacity:1;fill-rule:nonzero;stroke:none"
             id="path418" />
        </g>
        <g
           id="g420"
           transform="translate(451.2935,116.866)">
          <path
             d="M 0,0 C -1.074,0.785 -1.674,1.856 -1.8,3.21 H 0.149 C 0.239,2.378 0.632,1.707 1.327,1.192 2.021,0.677 2.955,0.421 4.128,0.421 c 1.029,0 1.837,0.243 2.423,0.731 0.587,0.487 0.881,1.091 0.881,1.813 0,0.504 -0.163,0.922 -0.488,1.245 C 6.62,4.536 6.209,4.793 5.712,4.983 5.216,5.172 4.543,5.374 3.695,5.591 2.595,5.879 1.702,6.168 1.015,6.458 0.33,6.745 -0.252,7.175 -0.73,7.743 c -0.479,0.569 -0.717,1.331 -0.717,2.288 0,0.722 0.216,1.388 0.649,2.003 0.433,0.613 1.046,1.101 1.841,1.46 0.794,0.362 1.695,0.543 2.706,0.543 1.588,0 2.871,-0.402 3.844,-1.204 0.975,-0.805 1.499,-1.91 1.57,-3.317 H 7.269 c -0.055,0.867 -0.393,1.565 -1.016,2.099 -0.622,0.53 -1.475,0.798 -2.558,0.798 -0.957,0 -1.731,-0.225 -2.327,-0.677 C 0.772,11.285 0.475,10.725 0.475,10.057 0.475,9.48 0.65,9.006 1.003,8.637 1.354,8.267 1.791,7.978 2.315,7.771 2.838,7.562 3.542,7.333 4.426,7.079 5.491,6.792 6.339,6.511 6.971,6.241 7.603,5.97 8.144,5.572 8.595,5.049 9.046,4.525 9.281,3.831 9.299,2.965 9.299,2.171 9.082,1.462 8.649,0.841 8.216,0.217 7.611,-0.275 6.836,-0.634 6.06,-0.996 5.166,-1.177 4.156,-1.177 2.459,-1.177 1.074,-0.783 0,0"
             style="fill:#4f4c4d;fill-opacity:1;fill-rule:nonzero;stroke:none"
             id="path422" />
        </g>
        <path
           d="m 467.414,115.906 h -1.894 v 14.78 h 1.894 z m -1.922,17.975 c -0.271,0.27 -0.406,0.605 -0.406,1 0,0.398 0.135,0.728 0.406,0.99 0.271,0.26 0.595,0.392 0.974,0.392 0.379,0 0.704,-0.132 0.975,-0.392 0.27,-0.262 0.406,-0.592 0.406,-0.99 0,-0.395 -0.136,-0.73 -0.406,-1 -0.271,-0.27 -0.596,-0.407 -0.975,-0.407 -0.379,0 -0.703,0.137 -0.974,0.407"
           style="fill:#4f4c4d;fill-opacity:1;fill-rule:nonzero;stroke:none"
           id="path424" />
        <g
           id="g426"
           transform="translate(484.3859,126.4356)">
          <path
             d="m 0,0 c -0.487,0.902 -1.15,1.598 -1.989,2.086 -0.84,0.487 -1.765,0.73 -2.776,0.73 -1.046,0 -1.984,-0.234 -2.814,-0.705 -0.831,-0.468 -1.485,-1.149 -1.963,-2.043 -0.479,-0.894 -0.717,-1.954 -0.717,-3.18 0,-1.209 0.238,-2.271 0.717,-3.182 0.478,-0.911 1.132,-1.605 1.963,-2.084 0.83,-0.479 1.768,-0.717 2.814,-0.717 1.011,0 1.936,0.245 2.776,0.73 0.839,0.488 1.502,1.184 1.989,2.086 0.487,0.902 0.731,1.948 0.731,3.14 C 0.731,-1.948 0.487,-0.902 0,0 m -11.275,0.881 c 0.605,1.145 1.444,2.029 2.518,2.652 1.073,0.624 2.288,0.935 3.641,0.935 1.407,0 2.621,-0.326 3.641,-0.975 1.02,-0.649 1.755,-1.479 2.206,-2.49 V 4.251 H 2.625 V -10.53 H 0.731 v 3.276 c -0.469,-1.011 -1.214,-1.845 -2.234,-2.505 -1.019,-0.658 -2.232,-0.988 -3.64,-0.988 -1.336,0 -2.541,0.317 -3.614,0.948 -1.074,0.632 -1.913,1.526 -2.518,2.679 -0.604,1.156 -0.906,2.493 -0.906,4.008 0,1.516 0.302,2.846 0.906,3.993"
             style="fill:#4f4c4d;fill-opacity:1;fill-rule:nonzero;stroke:none"
             id="path428" />
        </g>
        <g
           id="g430"
           transform="translate(511.6996,134.8282)">
          <path
             d="m 0,0 v -1.571 h -8.338 v -7.064 h 7.039 v -1.571 h -7.039 v -8.716 h -1.895 V 0 Z"
             style="fill:#4f4c4d;fill-opacity:1;fill-rule:nonzero;stroke:none"
             id="path432" />
        </g>
        <g
           id="g434"
           transform="translate(526.9521,126.923)">
          <path
             d="M 0,0 C -0.46,0.777 -1.088,1.362 -1.882,1.76 -2.675,2.156 -3.542,2.356 -4.48,2.356 -5.887,2.356 -7.088,1.905 -8.081,1.003 -9.073,0.1 -9.623,-1.173 -9.731,-2.814 H 0.663 C 0.681,-1.713 0.461,-0.775 0,0 M 2.531,-4.357 H -9.731 c 0.054,-1.12 0.324,-2.075 0.812,-2.869 0.487,-0.796 1.128,-1.394 1.922,-1.801 0.794,-0.406 1.66,-0.609 2.599,-0.609 1.227,0 2.26,0.298 3.099,0.892 0.839,0.596 1.394,1.399 1.664,2.41 h 2.004 c -0.362,-1.443 -1.133,-2.62 -2.315,-3.531 -1.182,-0.914 -2.666,-1.369 -4.452,-1.369 -1.39,0 -2.636,0.313 -3.736,0.934 -1.101,0.624 -1.963,1.507 -2.586,2.652 -0.623,1.148 -0.933,2.486 -0.933,4.021 0,1.535 0.306,2.878 0.92,4.034 0.613,1.153 1.471,2.039 2.571,2.652 1.101,0.613 2.356,0.921 3.764,0.921 1.406,0 2.639,-0.308 3.695,-0.921 1.055,-0.613 1.867,-1.439 2.436,-2.476 0.568,-1.038 0.852,-2.19 0.852,-3.452 0,-0.649 -0.018,-1.145 -0.054,-1.488"
             style="fill:#4f4c4d;fill-opacity:1;fill-rule:nonzero;stroke:none"
             id="path436" />
        </g>
        <g
           id="g438"
           transform="translate(538.1596,130.1988)">
          <path
             d="M 0,0 C 0.857,0.504 1.908,0.758 3.153,0.758 V -1.217 H 2.639 c -1.371,0 -2.473,-0.371 -3.303,-1.112 -0.83,-0.738 -1.245,-1.975 -1.245,-3.707 v -8.257 h -1.895 v 14.78 h 1.895 V -2.139 C -1.494,-1.217 -0.858,-0.504 0,0"
             style="fill:#4f4c4d;fill-opacity:1;fill-rule:nonzero;stroke:none"
             id="path440" />
        </g>
        <g
           id="g442"
           transform="translate(549.3128,130.1988)">
          <path
             d="M 0,0 C 0.857,0.504 1.908,0.758 3.153,0.758 V -1.217 H 2.639 c -1.371,0 -2.473,-0.371 -3.303,-1.112 -0.83,-0.738 -1.245,-1.975 -1.245,-3.707 v -8.257 h -1.895 v 14.78 h 1.895 V -2.139 C -1.494,-1.217 -0.858,-0.504 0,0"
             style="fill:#4f4c4d;fill-opacity:1;fill-rule:nonzero;stroke:none"
             id="path444" />
        </g>
        <g
           id="g446"
           transform="translate(568.8426,130.6862)">
          <path
             d="m 0,0 -8.77,-21.738 h -1.977 l 2.87,7.039 L -13.94,0 h 2.083 L -6.822,-12.615 -1.949,0 Z"
             style="fill:#4f4c4d;fill-opacity:1;fill-rule:nonzero;stroke:none"
             id="path448" />
        </g>
      </g>
    </g>
  </g>
</svg>
